<?xml version="1.0" encoding="UTF-8"?>
<svg width="1200" height="620" viewBox="0 0 1200 620" xmlns="http://www.w3.org/2000/svg">
  <rect width="1200" height="620" fill="#ffffff"/>
  <text x="600" y="32" text-anchor="middle" font-family="Times New Roman, serif" font-size="18" font-weight="700">Gambar X. F1-score per Penyakit</text>
  
      <line x1="90" y1="500" x2="1158" y2="500" stroke="#e5e7eb"/>
      <text x="78" y="505" text-anchor="end" font-family="Times New Roman, serif" font-size="13">0.0</text>
      <line x1="90" y1="414" x2="1158" y2="414" stroke="#e5e7eb"/>
      <text x="78" y="419" text-anchor="end" font-family="Times New Roman, serif" font-size="13">0.2</text>
      <line x1="90" y1="328" x2="1158" y2="328" stroke="#e5e7eb"/>
      <text x="78" y="333" text-anchor="end" font-family="Times New Roman, serif" font-size="13">0.4</text>
      <line x1="90" y1="241.99999999999994" x2="1158" y2="241.99999999999994" stroke="#e5e7eb"/>
      <text x="78" y="246.99999999999994" text-anchor="end" font-family="Times New Roman, serif" font-size="13">0.6</text>
      <line x1="90" y1="156" x2="1158" y2="156" stroke="#e5e7eb"/>
      <text x="78" y="161" text-anchor="end" font-family="Times New Roman, serif" font-size="13">0.8</text>
      <line x1="90" y1="70" x2="1158" y2="70" stroke="#e5e7eb"/>
      <text x="78" y="75" text-anchor="end" font-family="Times New Roman, serif" font-size="13">1.0</text>
    <line x1="90" y1="70" x2="90" y2="500" stroke="#111827" stroke-width="1.2"/>
    <line x1="90" y1="500" x2="1158" y2="500" stroke="#111827" stroke-width="1.2"/>
      <rect x="90" y="70" width="117.75" height="430" fill="#7aa6d9" stroke="#1f2937" stroke-width="0.5"/>
      <text x="148.875" y="62" text-anchor="middle" font-family="Times New Roman, serif" font-size="14">1.000</text>
      <text transform="translate(148.875, 522) rotate(35)" text-anchor="start" font-family="Times New Roman, serif" font-size="14">P001 Enterobiasis</text>
      <rect x="225.75" y="156" width="117.75" height="344" fill="#7aa6d9" stroke="#1f2937" stroke-width="0.5"/>
      <text x="284.625" y="148" text-anchor="middle" font-family="Times New Roman, serif" font-size="14">0.800</text>
      <text transform="translate(284.625, 522) rotate(35)" text-anchor="start" font-family="Times New Roman, serif" font-size="14">P003 Influenza</text>
      <rect x="361.5" y="131.49" width="117.75" height="368.51" fill="#7aa6d9" stroke="#1f2937" stroke-width="0.5"/>
      <text x="420.375" y="123.49000000000001" text-anchor="middle" font-family="Times New Roman, serif" font-size="14">0.857</text>
      <text transform="translate(420.375, 522) rotate(35)" text-anchor="start" font-family="Times New Roman, serif" font-size="14">P004 DBD</text>
      <rect x="497.25" y="70" width="117.75" height="430" fill="#7aa6d9" stroke="#1f2937" stroke-width="0.5"/>
      <text x="556.125" y="62" text-anchor="middle" font-family="Times New Roman, serif" font-size="14">1.000</text>
      <text transform="translate(556.125, 522) rotate(35)" text-anchor="start" font-family="Times New Roman, serif" font-size="14">P005 Gastroenteritis</text>
      <rect x="633" y="131.49" width="117.75" height="368.51" fill="#7aa6d9" stroke="#1f2937" stroke-width="0.5"/>
      <text x="691.875" y="123.49000000000001" text-anchor="middle" font-family="Times New Roman, serif" font-size="14">0.857</text>
      <text transform="translate(691.875, 522) rotate(35)" text-anchor="start" font-family="Times New Roman, serif" font-size="14">P006 Pneumonia</text>
      <rect x="768.75" y="70" width="117.75" height="430" fill="#7aa6d9" stroke="#1f2937" stroke-width="0.5"/>
      <text x="827.625" y="62" text-anchor="middle" font-family="Times New Roman, serif" font-size="14">1.000</text>
      <text transform="translate(827.625, 522) rotate(35)" text-anchor="start" font-family="Times New Roman, serif" font-size="14">P010 Roseola</text>
      <rect x="904.5" y="213.19" width="117.75" height="286.81" fill="#7aa6d9" stroke="#1f2937" stroke-width="0.5"/>
      <text x="963.375" y="205.19" text-anchor="middle" font-family="Times New Roman, serif" font-size="14">0.667</text>
      <text transform="translate(963.375, 522) rotate(35)" text-anchor="start" font-family="Times New Roman, serif" font-size="14">P013 Otitis Media</text>
      <rect x="1040.25" y="70" width="117.75" height="430" fill="#7aa6d9" stroke="#1f2937" stroke-width="0.5"/>
      <text x="1099.125" y="62" text-anchor="middle" font-family="Times New Roman, serif" font-size="14">1.000</text>
      <text transform="translate(1099.125, 522) rotate(35)" text-anchor="start" font-family="Times New Roman, serif" font-size="14">P014 Malaria</text>
</svg>